<svg xmlns="http://www.w3.org/2000/svg" xmlns:xlink="http://www.w3.org/1999/xlink" width="268" height="29" viewBox="0 0 268 29">
    <g fill="none" fill-rule="evenodd">
        <path fill="#F9003C" d="M59.498 18.14h-.083c0-1.267.028-2.534-.02-3.799-.011-.303-.19-.735-.438-.877-3.156-1.8-6.606-.766-7.886 2.153-.581 1.327-.644 2.708-.427 4.106.532 3.42 5.025 5.285 8.045 3.35.541-.346.861-.752.825-1.438-.06-1.162-.016-2.33-.016-3.495m0 8.944c-2.026 1.39-4.08 1.989-6.326 1.898-1.684-.068-3.323-.387-4.86-1.074-2.179-.973-3.728-2.533-4.483-4.706-1.169-3.362-1.125-6.746.28-10.036 1.775-4.16 5.98-6.38 10.613-5.588 1.42.242 2.776.822 4.16 1.25.168.052.33.12.616.224v-.898c0-2.458.018-4.917-.013-7.375-.007-.6.178-.785.814-.772 1.888.038 3.779.053 5.665-.005.802-.024 1.043.177 1.036.961-.04 4.157-.02 8.314-.02 12.47 0 4.867-.017 9.735.019 14.6.005.771-.21.993-1.025.965a97.512 97.512 0 0 0-5.586-.004c-.688.016-.999-.145-.897-.836.043-.29.007-.59.007-1.074M34.226 16.155c.135-1.892-.672-3.266-2.15-4.186-1.537-.956-3.203-.913-4.737.044-1.49.928-1.955 2.44-2.135 4.142h9.022zm5.797 6.809c.086.872.214 1.783.24 2.697.007.258-.225.609-.453.775-1.542 1.13-3.338 1.666-5.184 2.018-3.02.576-6.063.903-9.054-.095-3.667-1.224-6.5-3.427-7.298-7.377C16.684 13.122 22.223 6.985 29.271 7c1.15.003 2.308.12 3.444.291 4.711.716 7.178 4.106 7.894 7.895.217 1.147.242 2.33.378 3.493.072.626-.144.84-.8.834-4.646-.035-9.292-.033-13.939-.043h-.851c.067.295.094.511.165.712.967 2.76 3.383 4.55 6.312 4.431 1.859-.075 3.715-.399 5.55-.728.864-.155 1.679-.585 2.6-.921z"></path>
        <g transform="translate(0 7)">
            <path fill="#F9003C" d="M7.462 21.784H.071c-.02-.302-.051-.572-.051-.84C.017 14.408.03 7.873 0 1.34-.003.59.235.403.988.42c2.116.047 4.234.016 6.476.016v5.612l.2.04c.128-.203.258-.405.383-.61.94-1.547 2.065-2.946 3.565-4.04 2.153-1.568 5.233-1.55 7.405-.005.503.357.568.648.267 1.181-1.053 1.872-2.048 3.772-3.1 5.727l-.647-.472c-1.533-1.127-3.187-1.169-4.773-.1-1.499 1.01-2.494 2.396-3.179 3.995-.115.27-.117.594-.118.893-.008 2.736-.005 5.471-.005 8.206v.921z"></path>
        </g>
        <path fill="#F9003C" d="M176 9.132c-1.159-.24-1.96-.044-2.717.887-2.049 2.516-4.238 4.922-6.373 7.37-.271.313-.553.617-.866.966-.234-.245-.41-.415-.571-.6-2.32-2.652-4.637-5.306-6.955-7.96-.71-.814-1.416-.982-2.518-.6V29h1.578V11.039l.199-.066 8.247 9.465 8.194-9.5.235.104v17.94H176V9.133zM198.69 9H187v20h12v-1.058h-9.373c-1.042 0-1.043-.002-1.043-1.028-.001-2.187.025-4.373-.015-6.559-.012-.673.174-.905.908-.894 2.674.039 5.349.016 8.024.014.277 0 .553-.022.855-.034v-1.053h-.947c-2.648 0-5.297-.019-7.945.013-.672.008-.907-.165-.895-.834.04-2.235.044-4.473-.002-6.708-.015-.71.244-.881.937-.874 2.753.03 5.506.013 8.258.01.303 0 .606-.027.928-.041V9zM238.059 28.945c1.93.132 1.93.132 1.93-1.215V10.325c0-.27.038-.547-.026-.809-.038-.155-.207-.372-.377-.414-1.092-.276-1.585.007-1.585.875-.002 6.048-.002 12.095.002 18.142 0 .263.035.526.056.826M210.514 18.988c0 2.737.012 5.473-.01 8.21-.004.544.173.733.75.725 1.903-.029 3.806 0 5.708-.018 1.898-.018 3.746-.304 5.447-1.158 3.698-1.857 5.52-5.754 4.631-9.84-.777-3.573-4.308-6.465-8.345-6.692-2.436-.136-4.882-.07-7.323-.136-.687-.02-.88.205-.872.848.032 2.686.013 5.374.014 8.06zM209 9.178c.062-.056.08-.087.099-.087 3.98 0 7.983-.39 11.92.442 4.4.93 7.537 4.336 7.936 8.497.408 4.233-2.003 8.123-6.114 9.883a13.156 13.156 0 0 1-5.162 1.063c-2.624.013-5.249.018-7.873.024-.252 0-.504-.02-.806-.032V9.178zM252.979 21.47h9.87l-5.027-10.378-.21.027-4.633 10.35M268 28.92c-1.386.166-1.386.166-1.943-.974-.756-1.548-1.531-3.09-2.259-4.651-.228-.49-.508-.694-1.081-.69-3.21.026-6.42.024-9.63.002-.535-.004-.817.165-1.027.645-.687 1.578-1.42 3.138-2.136 4.705-.516 1.131-.517 1.13-1.924.965.079-.212.141-.417.23-.61 2.885-6.232 5.776-12.46 8.652-18.696.184-.4.373-.624.88-.615.468.01.722.148.922.564 3.057 6.343 6.129 12.68 9.196 19.018.04.085.064.178.12.337M102.604 23.55c2.651-.017 4.964-2.368 4.959-5.041-.006-2.73-2.402-5.154-5.062-5.118-2.73.036-4.989 2.308-4.964 4.994.027 2.86 2.307 5.184 5.067 5.166M102.543 29c-3.1-.103-5.956-.79-8.222-3.01-3.134-3.07-4.076-6.791-2.714-10.903 1.367-4.13 4.585-6.229 8.783-6.884 3.241-.506 6.367-.125 9.121 1.816 3.668 2.585 5.088 6.168 4.26 10.502-.823 4.304-3.688 6.836-7.832 7.988-1.093.304-2.263.335-3.396.491M126.023 20.859c.18-.38.292-.59.383-.81 1.434-3.437 2.876-6.871 4.285-10.318.215-.526.472-.769 1.092-.726.851.058 1.712.043 2.566.004.51-.024.753.146.942.606 1.406 3.42 2.843 6.83 4.27 10.242.103.244.213.484.402.918.209-.385.347-.616.462-.858 1.619-3.414 3.245-6.825 4.835-10.252.233-.501.518-.667 1.075-.658 1.854.032 3.709.013 5.665.013-.128.316-.204.538-.305.75-2.94 6.183-5.887 12.362-8.812 18.551-.228.483-.484.7-1.06.676a45.464 45.464 0 0 0-3.472 0c-.546.02-.797-.168-.99-.646-1.303-3.198-2.634-6.385-3.957-9.575-.082-.198-.179-.389-.333-.723-.155.292-.263.463-.34.646-1.34 3.184-2.692 6.364-3.999 9.56-.233.57-.534.764-1.16.739-1.206-.049-2.415.014-3.622-.036-.275-.011-.676-.233-.786-.46-3.039-6.354-6.05-12.721-9.061-19.087-.04-.084-.056-.179-.103-.335.22-.023.406-.058.592-.058 1.711-.004 3.423.015 5.134-.014.505-.008.75.15.958.598 1.625 3.49 3.28 6.966 4.927 10.445.102.215.216.425.412.808M85.942 21.692c0 1.965.01 3.77-.015 5.575-.002.168-.175.41-.333.487-6.472 3.166-13.02-.075-14.941-5.537-1.415-4.022-.686-9.487 3.74-12.505 2.993-2.042 6.273-2.06 9.623-1.082 1.995.582 1.984.62 1.984 2.677v3.57c-1.207-.343-2.338-.764-3.507-.976-1.874-.338-3.68-.132-4.945 1.502-1.207 1.558-1.288 3.32-.471 5.058.79 1.68 2.269 2.47 4.085 2.332 1.306-.098 2.589-.508 3.88-.792.255-.056.499-.169.9-.309"></path>
    </g>
</svg>