<?xml version="1.0" encoding="UTF-8" standalone="no"?>
<svg
   width="19.46496"
   height="21.515881"
   viewBox="0 0 19.46496 21.515881"
   version="1.1"
   id="svg3"
   sodipodi:docname="logo-icon-white.svg"
   inkscape:version="1.3.2 (091e20e, 2023-11-25)"
   xmlns:inkscape="http://www.inkscape.org/namespaces/inkscape"
   xmlns:sodipodi="http://sodipodi.sourceforge.net/DTD/sodipodi-0.dtd"
   xmlns="http://www.w3.org/2000/svg"
   xmlns:svg="http://www.w3.org/2000/svg">
  <defs
     id="defs3" />
  <sodipodi:namedview
     id="namedview3"
     pagecolor="#ffffff"
     bordercolor="#000000"
     borderopacity="0.25"
     inkscape:showpageshadow="2"
     inkscape:pageopacity="0.0"
     inkscape:pagecheckerboard="0"
     inkscape:deskcolor="#d1d1d1"
     inkscape:zoom="5.4945319"
     inkscape:cx="-19.837905"
     inkscape:cy="-7.8259624"
     inkscape:window-width="1712"
     inkscape:window-height="967"
     inkscape:window-x="0"
     inkscape:window-y="40"
     inkscape:window-maximized="1"
     inkscape:current-layer="g3" />
  <g
     fill-rule="evenodd"
     id="g3"
     transform="translate(2.7942582e-5,-7.2681199)">
    <g
       transform="translate(0,7)"
       id="g2">
      <path
         d="M 7.462,21.784 H 0.071 C 0.051,21.482 0.02,21.212 0.02,20.944 0.017,14.408 0.03,7.873 0,1.34 -0.003,0.59 0.235,0.403 0.988,0.42 3.104,0.467 5.222,0.436 7.464,0.436 v 5.612 l 0.2,0.04 c 0.128,-0.203 0.258,-0.405 0.383,-0.61 0.94,-1.547 2.065,-2.946 3.565,-4.04 2.153,-1.568 5.233,-1.55 7.405,-0.005 0.503,0.357 0.568,0.648 0.267,1.181 -1.053,1.872 -2.048,3.772 -3.1,5.727 L 15.537,7.869 C 14.004,6.742 12.35,6.7 10.764,7.769 9.265,8.779 8.27,10.165 7.585,11.764 7.47,12.034 7.468,12.358 7.467,12.657 7.459,15.393 7.462,18.128 7.462,20.863 Z"
         id="path2" />
    </g>
  </g>
</svg>
